<?xml version="1.0" encoding="utf-8"?>
<!-- Generator: Adobe Illustrator 13.0.0, SVG Export Plug-In . SVG Version: 6.00 Build 14948)  -->
<!DOCTYPE svg PUBLIC "-//W3C//DTD SVG 1.1//EN" "http://www.w3.org/Graphics/SVG/1.1/DTD/svg11.dtd">
<svg version="1.1" id="Layer_1" xmlns="http://www.w3.org/2000/svg" xmlns:xlink="http://www.w3.org/1999/xlink" x="0px" y="0px"
	 width="450.16px" height="162.239px" viewBox="0 0 450.16 162.239" enable-background="new 0 0 450.16 162.239"
	 xml:space="preserve">
<g>
	<rect x="73.259" y="136.104" width="4.252" height="3.685"/>
	<rect x="73.259" y="141.49" width="4.252" height="3.685"/>
	<rect x="38.449" y="127.714" width="3.685" height="4.252"/>
	<rect x="43.835" y="127.714" width="3.685" height="4.252"/>
	<rect x="66.059" y="103.704" width="4.252" height="3.686"/>
	<rect x="66.059" y="109.09" width="4.252" height="3.686"/>
	<rect x="84.059" y="103.704" width="4.252" height="3.686"/>
	<rect x="84.059" y="109.09" width="4.252" height="3.686"/>
	<rect x="81.649" y="34.113" width="3.685" height="4.252"/>
	<rect x="87.035" y="34.113" width="3.685" height="4.252"/>
	<rect x="47.125" y="49.02" width="5.4" height="5.4"/>
	<path d="M52.5,63.96c0-1.49-1.209-2.7-2.7-2.7c-1.491,0-2.7,1.21-2.7,2.7s1.209,2.699,2.7,2.699
		C51.291,66.659,52.5,65.45,52.5,63.96"/>
	<path d="M31.62,63.96c0-1.49-1.209-2.7-2.7-2.7c-1.49,0-2.7,1.21-2.7,2.7s1.209,2.699,2.7,2.699
		C30.411,66.659,31.62,65.45,31.62,63.96"/>
	<path d="M31.62,51.72c0-1.49-1.209-2.7-2.7-2.7c-1.49,0-2.7,1.21-2.7,2.7s1.209,2.7,2.7,2.7C30.411,54.42,31.62,53.21,31.62,51.72"
		/>
	<rect x="63.649" y="73.572" width="3.685" height="4.535"/>
	<rect x="69.035" y="73.572" width="3.685" height="4.535"/>
	<rect x="51.517" y="20.904" width="4.535" height="3.685"/>
	<rect x="51.517" y="26.29" width="4.535" height="3.686"/>
	<rect x="51.517" y="40.69" width="4.535" height="3.685"/>
	<rect x="51.517" y="35.305" width="4.535" height="3.685"/>
	<rect x="44.317" y="20.904" width="4.536" height="3.685"/>
	<rect x="44.317" y="26.29" width="4.536" height="3.686"/>
	<rect x="44.317" y="40.69" width="4.536" height="3.685"/>
	<rect x="44.317" y="35.305" width="4.536" height="3.685"/>
	<rect x="37.117" y="20.904" width="4.536" height="3.685"/>
	<rect x="37.117" y="26.29" width="4.536" height="3.686"/>
	<rect x="37.117" y="40.69" width="4.536" height="3.685"/>
	<rect x="37.117" y="35.305" width="4.536" height="3.685"/>
	<rect x="29.917" y="20.904" width="4.535" height="3.685"/>
	<rect x="29.917" y="26.29" width="4.535" height="3.686"/>
	<rect x="29.917" y="40.69" width="4.535" height="3.685"/>
	<rect x="29.917" y="35.305" width="4.535" height="3.685"/>
	<rect x="22.717" y="20.904" width="4.536" height="3.685"/>
	<rect x="22.717" y="26.29" width="4.536" height="3.686"/>
	<rect x="22.717" y="40.69" width="4.536" height="3.685"/>
	<rect x="22.717" y="35.305" width="4.536" height="3.685"/>
	<rect x="56.449" y="62.771" width="3.685" height="4.536"/>
	<rect x="61.835" y="62.771" width="3.685" height="4.536"/>
	<rect x="15.517" y="20.904" width="4.535" height="3.685"/>
	<rect x="15.517" y="26.29" width="4.535" height="3.686"/>
	<rect x="15.517" y="40.69" width="4.535" height="3.685"/>
	<rect x="15.517" y="35.305" width="4.535" height="3.685"/>
	<rect x="87.517" y="141.49" width="4.535" height="3.685"/>
	<rect x="87.517" y="136.104" width="4.535" height="3.685"/>
	<rect x="83.917" y="94.69" width="4.535" height="3.685"/>
	<rect x="83.917" y="89.305" width="4.535" height="3.685"/>
	<rect x="73.117" y="35.305" width="4.535" height="3.685"/>
	<rect x="73.117" y="40.69" width="4.535" height="3.685"/>
	<rect x="65.917" y="20.904" width="4.535" height="3.685"/>
	<rect x="65.917" y="26.29" width="4.535" height="3.686"/>
	<rect x="65.917" y="40.69" width="4.535" height="3.685"/>
	<rect x="65.917" y="35.305" width="4.535" height="3.685"/>
	<rect x="58.717" y="20.904" width="4.536" height="3.685"/>
	<rect x="58.717" y="26.29" width="4.536" height="3.686"/>
	<rect x="58.717" y="40.69" width="4.536" height="3.685"/>
	<rect x="58.717" y="35.305" width="4.536" height="3.685"/>
	<path d="M59.376,97.56c0-1.312-1.064-2.376-2.376-2.376s-2.376,1.064-2.376,2.376s1.064,2.376,2.376,2.376
		S59.376,98.871,59.376,97.56"/>
	<path d="M59.376,104.64c0-1.312-1.064-2.376-2.376-2.376s-2.376,1.064-2.376,2.376s1.064,2.376,2.376,2.376
		S59.376,105.951,59.376,104.64"/>
	<path d="M59.376,111.72c0-1.312-1.064-2.376-2.376-2.376s-2.376,1.064-2.376,2.376s1.064,2.376,2.376,2.376
		S59.376,113.031,59.376,111.72"/>
	<path d="M18.336,97.56c0-1.312-1.064-2.376-2.376-2.376s-2.376,1.064-2.376,2.376s1.064,2.376,2.376,2.376
		S18.336,98.871,18.336,97.56"/>
	<path d="M18.336,111.72c0-1.312-1.064-2.376-2.376-2.376s-2.376,1.064-2.376,2.376s1.064,2.376,2.376,2.376
		S18.336,113.031,18.336,111.72"/>
	<polygon points="48.96,15.624 47.569,17.016 45.601,17.016 44.208,15.624 44.208,13.655 45.601,12.264 47.569,12.264 48.96,13.655 
			"/>
	<polygon points="56.161,152.424 54.769,153.815 52.8,153.815 51.409,152.424 51.409,150.455 52.8,149.063 54.769,149.063 
		56.161,150.455 	"/>
	<polygon points="41.761,15.624 40.369,17.016 38.4,17.016 37.009,15.624 37.009,13.655 38.4,12.264 40.369,12.264 41.761,13.655 	
		"/>
	<polygon points="34.561,15.624 33.169,17.016 31.201,17.016 29.809,15.624 29.809,13.655 31.201,12.264 33.169,12.264 
		34.561,13.655 	"/>
	<polygon points="27.361,15.624 25.969,17.016 24,17.016 22.609,15.624 22.609,13.655 24,12.264 25.969,12.264 27.361,13.655 	"/>
	<polygon points="20.161,15.624 18.769,17.016 16.8,17.016 15.409,15.624 15.409,13.655 16.8,12.264 18.769,12.264 20.161,13.655 	
		"/>
	<polygon points="56.161,15.624 54.769,17.016 52.8,17.016 51.409,15.624 51.409,13.655 52.8,12.264 54.769,12.264 56.161,13.655 	
		"/>
	<polygon points="63.361,15.624 61.969,17.016 60,17.016 58.609,15.624 58.609,13.655 60,12.264 61.969,12.264 63.361,13.655 	"/>
	<polygon points="70.561,15.624 69.169,17.016 67.201,17.016 65.809,15.624 65.809,13.655 67.201,12.264 69.169,12.264 
		70.561,13.655 	"/>
	<polygon points="82.081,15.624 80.689,17.016 78.721,17.016 77.329,15.624 77.329,13.655 78.721,12.264 80.689,12.264 
		82.081,13.655 	"/>
	<polygon points="89.281,15.624 87.889,17.016 85.92,17.016 84.529,15.624 84.529,13.655 85.92,12.264 87.889,12.264 89.281,13.655 
			"/>
	<polygon points="96.48,15.624 95.089,17.016 93.121,17.016 91.729,15.624 91.729,13.655 93.121,12.264 95.089,12.264 96.48,13.655 
			"/>
	<polygon points="103.681,15.624 102.289,17.016 100.32,17.016 98.929,15.624 98.929,13.655 100.32,12.264 102.289,12.264 
		103.681,13.655 	"/>
	<polygon points="110.881,15.624 109.488,17.016 107.521,17.016 106.129,15.624 106.129,13.655 107.521,12.264 109.488,12.264 
		110.881,13.655 	"/>
	<polygon points="118.08,15.624 116.689,17.016 114.721,17.016 113.328,15.624 113.328,13.655 114.721,12.264 116.689,12.264 
		118.08,13.655 	"/>
	<polygon points="125.281,15.624 123.889,17.016 121.92,17.016 120.529,15.624 120.529,13.655 121.92,12.264 123.889,12.264 
		125.281,13.655 	"/>
	<polygon points="132.48,15.624 131.089,17.016 129.121,17.016 127.729,15.624 127.729,13.655 129.121,12.264 131.089,12.264 
		132.48,13.655 	"/>
	<polygon points="48.96,152.424 47.569,153.815 45.601,153.815 44.208,152.424 44.208,150.455 45.601,149.063 47.569,149.063 
		48.96,150.455 	"/>
	<polygon points="41.761,152.424 40.369,153.815 38.4,153.815 37.009,152.424 37.009,150.455 38.4,149.063 40.369,149.063 
		41.761,150.455 	"/>
	<polygon points="34.561,152.424 33.169,153.815 31.201,153.815 29.809,152.424 29.809,150.455 31.201,149.063 33.169,149.063 
		34.561,150.455 	"/>
	<polygon points="27.361,152.424 25.969,153.815 24,153.815 22.609,152.424 22.609,150.455 24,149.063 25.969,149.063 
		27.361,150.455 	"/>
	<polygon points="20.161,152.424 18.769,153.815 16.8,153.815 15.409,152.424 15.409,150.455 16.8,149.063 18.769,149.063 
		20.161,150.455 	"/>
	<polygon points="70.561,152.424 69.169,153.815 67.201,153.815 65.809,152.424 65.809,150.455 67.201,149.063 69.169,149.063 
		70.561,150.455 	"/>
	<polygon points="77.761,152.424 76.369,153.815 74.4,153.815 73.009,152.424 73.009,150.455 74.4,149.063 76.369,149.063 
		77.761,150.455 	"/>
	<polygon points="84.96,152.424 83.569,153.815 81.601,153.815 80.208,152.424 80.208,150.455 81.601,149.063 83.569,149.063 
		84.96,150.455 	"/>
	<polygon points="92.161,152.424 90.769,153.815 88.8,153.815 87.409,152.424 87.409,150.455 88.8,149.063 90.769,149.063 
		92.161,150.455 	"/>
	<polygon points="99.361,152.424 97.969,153.815 96,153.815 94.609,152.424 94.609,150.455 96,149.063 97.969,149.063 
		99.361,150.455 	"/>
	<polygon points="106.561,152.424 105.169,153.815 103.201,153.815 101.809,152.424 101.809,150.455 103.201,149.063 
		105.169,149.063 106.561,150.455 	"/>
	<polygon points="139.681,15.624 138.289,17.016 136.32,17.016 134.929,15.624 134.929,13.655 136.32,12.264 138.289,12.264 
		139.681,13.655 	"/>
	<polygon points="146.881,15.624 145.488,17.016 143.521,17.016 142.129,15.624 142.129,13.655 143.521,12.264 145.488,12.264 
		146.881,13.655 	"/>
	<polygon points="113.761,152.424 112.369,153.815 110.4,153.815 109.009,152.424 109.009,150.455 110.4,149.063 112.369,149.063 
		113.761,150.455 	"/>
	<polygon points="120.961,152.424 119.568,153.815 117.601,153.815 116.209,152.424 116.209,150.455 117.601,149.063 
		119.568,149.063 120.961,150.455 	"/>
	<g>
		<defs>
			<rect id="SVGID_1_" y="3" width="206.16" height="159.239"/>
		</defs>
		<clipPath id="SVGID_2_">
			<use xlink:href="#SVGID_1_"  overflow="visible"/>
		</clipPath>
		
			<path clip-path="url(#SVGID_2_)" fill="none" stroke="#000000" stroke-width="5.1024" stroke-linecap="round" stroke-linejoin="round" stroke-miterlimit="10" d="
			M11.633,79.439h5.103 M11.633,72.239h5.103 M171.535,79.439h-5.102 M171.535,86.64h-5.102 M171.535,93.84h-5.102 M171.535,101.04
			h-5.102 M96.985,37.288v5.103 M104.185,37.288v5.103 M111.385,37.288v5.103 M118.584,37.288v5.103 M125.785,37.288v5.103
			 M132.984,37.288v5.103 M140.185,37.288v5.103 M147.385,37.288v5.103"/>
	</g>
	
		<path fill="none" stroke="#000000" stroke-width="0.72" stroke-linecap="round" stroke-linejoin="round" stroke-miterlimit="10" d="
		M17.785,42.532v4.508 M17.785,47.04l3.6,3.6 M21.385,50.64h6.48 M27.865,50.64l1.08,1.08 M28.945,51.72v2.16 M28.945,53.88
		l-11.16,11.16 M17.785,65.04v3.6 M17.785,68.64l-3.6,3.6 M96.985,39.84h-4.507 M92.478,39.84l-3.6-3.601 M15.942,97.553h-5.244
		 M10.698,97.553l-0.114-0.113 M10.584,97.439l-3.6-3.6 M6.985,93.84v-18 M6.985,75.84l3.6-3.601 M10.584,72.239h3.6 M122.904,14.64
		v0.72 M122.904,15.359l17.28,17.28 M140.185,32.64h3.601 M143.785,32.64l3.6,3.6 M147.385,36.239v3.601 M122.904,15.359
		l-4.32-4.319 M118.584,11.04H75.385 M75.385,11.04v11.707 M75.385,22.747l13.493,13.492 M147.385,39.84v46.8 M147.385,86.64
		l14.4,14.4 M161.785,101.04h7.199 M49.825,51.72h-20.88 M68.185,110.933H57.838 M57.838,110.933l-0.794,0.794 M68.185,110.933h18
		 M82.584,151.439h-7.2 M75.385,151.439v-8.106 M57.044,111.727v6.746 M57.044,118.473L45.678,129.84 M75.385,143.333H59.17
		 M59.17,143.333L45.678,129.84 M44.785,140.64v-10.8 M35.785,149.64l9-9 M35.785,153.239v-3.6 M33.985,155.04l1.8-1.801
		 M15.985,155.04h18 M5.185,144.239l10.8,10.801 M5.185,102.84v41.399 M10.584,97.439l-5.4,5.4 M44.785,129.84h0.893 M58.292,65.04
		h-7.387 M50.905,65.04l-1.08-1.08 M28.945,63.96h20.88 M57.835,138.39h17.55 M75.385,138.39v-0.443"/>
	<path d="M59.16,138.479c0-0.795-0.645-1.439-1.44-1.439s-1.44,0.645-1.44,1.439s0.645,1.44,1.44,1.44S59.16,139.274,59.16,138.479"
		/>
	
		<path fill="none" stroke="#000000" stroke-width="0.72" stroke-linecap="round" stroke-linejoin="round" stroke-miterlimit="10" d="
		M32.185,151.439v-21.6 M32.185,129.84v-1.871 M32.185,127.969l-16.242-16.242 M40.292,129.84h-8.107 M40.292,129.84v-0.907
		 M40.292,128.933l6.292-6.293 M46.584,122.64v-28.8 M46.584,93.84l7.2-7.2 M53.785,86.64v-7.2 M53.785,79.439l3.6-3.6
		 M57.385,75.84h8.107 M86.185,96.532h-28.12 M58.065,96.532l-1.021,1.021 M86.185,105.547v-9.015 M57.044,104.64h10.233
		 M67.277,104.64l0.907,0.907 M89.785,137.946h-0.907 M88.877,137.946l-2.693,2.693 M86.185,140.64v14.4 M86.185,155.04l-3.6,3.6
		 M82.584,158.64h-25.2 M57.385,158.64l-3.6-3.6 M53.785,155.04v-3.601 M63.678,65.04h4.507 M68.185,65.04l3.6,3.6 M71.785,68.64
		v6.293 M71.785,74.933l-0.907,0.907 M86.185,91.146V86.64 M86.185,86.64l-10.8-10.8 M75.385,75.84h-4.507 M89.785,151.439v-8.106
		 M89.785,143.333h4.507 M94.292,143.333l2.693-2.693 M96.985,140.64v-46.8 M96.985,93.84l-3.6-3.601 M93.385,90.239h-6.293
		 M87.092,90.239l-0.907,0.907 M75.385,42.532v4.508 M75.385,47.04l-10.8,10.8 M64.584,57.84h-36 M28.584,57.84l-7.2,7.2
		 M21.385,65.04v10.8 M21.385,75.84l-3.6,3.6 M17.785,79.439h-3.6 M86.905,14.64h2.88 M89.785,14.64l18,18 M107.785,32.64v14.4
		 M107.785,47.04l-3.601,3.6 M104.185,50.64h-25.2 M78.985,50.64l-3.6-3.6 M68.185,28.133v9.014 M68.185,37.146h7.2 M83.492,36.239
		h-7.2 M76.292,36.239l-0.907,0.907 M68.185,22.747V14.64 M60.985,22.747V14.64 M53.785,22.747V14.64 M168.984,93.84h3.6
		 M172.584,93.84l3.601-3.601 M176.185,90.239V75.84 M176.185,75.84l-3.601-3.601 M172.584,72.239h-7.199 M165.385,72.239l-3.6-3.6
		 M161.785,68.64v-46.8 M161.785,21.84l3.6-3.601 M165.385,18.239V11.04 M165.385,11.04l-3.6-3.601 M161.785,7.439h-104.4
		 M57.385,7.439l-3.6,3.601 M53.785,11.04v3.6 M46.584,22.747V14.64 M17.785,22.747V14.64 M24.985,14.64v8.107 M60.985,28.133v9.014
		 M68.185,42.532h-1.814 M66.371,42.532l-5.386-5.386 M39.385,22.747V14.64 M32.185,14.64v8.107 M53.785,37.146v-9.014
		 M60.985,42.532H59.17 M59.17,42.532l-5.386-5.386 M46.584,28.133v9.014 M46.584,37.146h1.814 M48.399,37.146l5.386,5.386
		 M39.385,28.133v9.014 M39.385,37.146h1.814 M41.199,37.146l5.386,5.386 M32.185,28.133v9.014 M32.185,37.146h1.814 M33.999,37.146
		l5.386,5.386 M24.985,28.133v9.014 M24.985,37.146h1.814 M26.799,37.146l5.386,5.386 M17.785,28.133v9.014 M24.985,42.532H23.17
		 M23.17,42.532l-5.386-5.386 M168.984,86.64h-10.8 M158.185,86.64l-3.601-3.6 M154.584,83.04V36.239 M154.584,36.239l-7.199-7.199
		 M147.385,29.04h-3.6 M143.785,29.04l-3.601-3.601 M140.185,25.439v-7.92 M140.185,17.52l-2.88-2.88 M144.505,14.64v7.92
		 M144.505,22.56l13.68,13.68 M158.185,36.239V75.84 M158.185,75.84l3.601,3.6 M161.785,79.439h7.199 M79.705,14.64v0.72
		 M104.185,39.84v-3.601 M104.185,36.239l-3.6-3.6 M100.584,32.64h-3.6 M96.985,32.64v-0.72 M96.985,31.92l-17.28-17.28
		 M111.385,39.84v97.2 M111.385,137.04l-14.4,14.399 M94.104,14.64v0.72 M94.104,15.359l17.28,17.28 M111.385,32.64h3.6
		 M114.984,32.64l3.6,3.6 M118.584,36.239v3.601 M125.785,39.84v-0.72 M125.785,39.12l-24.48-24.48 M132.984,39.84v-3.601
		 M132.984,36.239l-3.6-3.6 M129.385,32.64h-3.6 M125.785,32.64l-10.801-10.8 M114.984,21.84v-0.72 M114.984,21.12l-6.479-6.48
		 M140.185,39.84v-0.72 M140.185,39.12l-24.479-24.48"/>
</g>
<g>
	<rect x="317.259" y="133.104" width="4.252" height="3.685"/>
	<rect x="317.259" y="138.49" width="4.252" height="3.685"/>
	<rect x="282.449" y="124.714" width="3.686" height="4.252"/>
	<rect x="287.835" y="124.714" width="3.685" height="4.252"/>
	<rect x="310.059" y="100.704" width="4.252" height="3.686"/>
	<rect x="310.059" y="106.09" width="4.252" height="3.686"/>
	<rect x="328.059" y="100.704" width="4.252" height="3.686"/>
	<rect x="328.059" y="106.09" width="4.252" height="3.686"/>
	<rect x="325.649" y="31.113" width="3.685" height="4.252"/>
	<rect x="331.035" y="31.113" width="3.686" height="4.252"/>
	<rect x="291.125" y="46.02" width="5.399" height="5.4"/>
	<path d="M296.5,60.96c0-1.49-1.209-2.7-2.699-2.7c-1.491,0-2.701,1.21-2.701,2.7s1.21,2.699,2.701,2.699
		C295.291,63.659,296.5,62.45,296.5,60.96"/>
	<path d="M275.62,60.96c0-1.49-1.21-2.7-2.7-2.7s-2.699,1.21-2.699,2.7s1.209,2.699,2.699,2.699S275.62,62.45,275.62,60.96"/>
	<path d="M275.62,48.72c0-1.49-1.21-2.7-2.7-2.7s-2.699,1.21-2.699,2.7s1.209,2.7,2.699,2.7S275.62,50.21,275.62,48.72"/>
	<rect x="307.649" y="70.572" width="3.685" height="4.535"/>
	<rect x="313.035" y="70.572" width="3.686" height="4.535"/>
	<rect x="295.518" y="17.904" width="4.535" height="3.685"/>
	<rect x="295.518" y="23.29" width="4.535" height="3.686"/>
	<rect x="295.518" y="37.69" width="4.535" height="3.685"/>
	<rect x="295.518" y="32.305" width="4.535" height="3.685"/>
	<rect x="288.316" y="17.904" width="4.536" height="3.685"/>
	<rect x="288.316" y="23.29" width="4.536" height="3.686"/>
	<rect x="288.316" y="37.69" width="4.536" height="3.685"/>
	<rect x="288.316" y="32.305" width="4.536" height="3.685"/>
	<rect x="281.117" y="17.904" width="4.535" height="3.685"/>
	<rect x="281.117" y="23.29" width="4.535" height="3.686"/>
	<rect x="281.117" y="37.69" width="4.535" height="3.685"/>
	<rect x="281.117" y="32.305" width="4.535" height="3.685"/>
	<rect x="273.917" y="17.904" width="4.535" height="3.685"/>
	<rect x="273.917" y="23.29" width="4.535" height="3.686"/>
	<rect x="273.917" y="37.69" width="4.535" height="3.685"/>
	<rect x="273.917" y="32.305" width="4.535" height="3.685"/>
	<rect x="266.717" y="17.904" width="4.535" height="3.685"/>
	<rect x="266.717" y="23.29" width="4.535" height="3.686"/>
	<rect x="266.717" y="37.69" width="4.535" height="3.685"/>
	<rect x="266.717" y="32.305" width="4.535" height="3.685"/>
	<rect x="300.449" y="59.771" width="3.686" height="4.536"/>
	<rect x="305.835" y="59.771" width="3.685" height="4.536"/>
	<rect x="259.518" y="17.904" width="4.535" height="3.685"/>
	<rect x="259.518" y="23.29" width="4.535" height="3.686"/>
	<rect x="259.518" y="37.69" width="4.535" height="3.685"/>
	<rect x="259.518" y="32.305" width="4.535" height="3.685"/>
	<rect x="331.518" y="138.49" width="4.535" height="3.685"/>
	<rect x="331.518" y="133.104" width="4.535" height="3.685"/>
	<rect x="327.917" y="91.69" width="4.535" height="3.685"/>
	<rect x="327.917" y="86.305" width="4.535" height="3.685"/>
	<rect x="317.117" y="32.305" width="4.535" height="3.685"/>
	<rect x="317.117" y="37.69" width="4.535" height="3.685"/>
	<rect x="309.917" y="17.904" width="4.535" height="3.685"/>
	<rect x="309.917" y="23.29" width="4.535" height="3.686"/>
	<rect x="309.917" y="37.69" width="4.535" height="3.685"/>
	<rect x="309.917" y="32.305" width="4.535" height="3.685"/>
	<rect x="302.717" y="17.904" width="4.535" height="3.685"/>
	<rect x="302.717" y="23.29" width="4.535" height="3.686"/>
	<rect x="302.717" y="37.69" width="4.535" height="3.685"/>
	<rect x="302.717" y="32.305" width="4.535" height="3.685"/>
	<path d="M303.376,94.56c0-1.312-1.064-2.376-2.376-2.376s-2.376,1.064-2.376,2.376s1.064,2.376,2.376,2.376
		S303.376,95.871,303.376,94.56"/>
	<path d="M303.376,101.64c0-1.312-1.064-2.376-2.376-2.376s-2.376,1.064-2.376,2.376s1.064,2.376,2.376,2.376
		S303.376,102.951,303.376,101.64"/>
	<path d="M303.376,108.72c0-1.312-1.064-2.376-2.376-2.376s-2.376,1.064-2.376,2.376s1.064,2.376,2.376,2.376
		S303.376,110.031,303.376,108.72"/>
	<path d="M262.336,94.56c0-1.312-1.064-2.376-2.376-2.376s-2.376,1.064-2.376,2.376s1.064,2.376,2.376,2.376
		S262.336,95.871,262.336,94.56"/>
	<path d="M262.336,108.72c0-1.312-1.064-2.376-2.376-2.376s-2.376,1.064-2.376,2.376s1.064,2.376,2.376,2.376
		S262.336,110.031,262.336,108.72"/>
	<polygon points="292.961,12.624 291.568,14.016 289.601,14.016 288.209,12.624 288.209,10.655 289.601,9.264 291.568,9.264 
		292.961,10.655 	"/>
	<polygon points="300.16,149.424 298.77,150.815 296.801,150.815 295.408,149.424 295.408,147.455 296.801,146.063 298.77,146.063 
		300.16,147.455 	"/>
	<polygon points="285.761,12.624 284.369,14.016 282.4,14.016 281.009,12.624 281.009,10.655 282.4,9.264 284.369,9.264 
		285.761,10.655 	"/>
	<polygon points="278.561,12.624 277.169,14.016 275.201,14.016 273.809,12.624 273.809,10.655 275.201,9.264 277.169,9.264 
		278.561,10.655 	"/>
	<polygon points="271.361,12.624 269.969,14.016 268,14.016 266.609,12.624 266.609,10.655 268,9.264 269.969,9.264 271.361,10.655 
			"/>
	<polygon points="264.16,12.624 262.77,14.016 260.801,14.016 259.408,12.624 259.408,10.655 260.801,9.264 262.77,9.264 
		264.16,10.655 	"/>
	<polygon points="300.16,12.624 298.77,14.016 296.801,14.016 295.408,12.624 295.408,10.655 296.801,9.264 298.77,9.264 
		300.16,10.655 	"/>
	<polygon points="307.361,12.624 305.969,14.016 304,14.016 302.609,12.624 302.609,10.655 304,9.264 305.969,9.264 307.361,10.655 
			"/>
	<polygon points="314.561,12.624 313.169,14.016 311.201,14.016 309.809,12.624 309.809,10.655 311.201,9.264 313.169,9.264 
		314.561,10.655 	"/>
	<polygon points="326.08,12.624 324.689,14.016 322.721,14.016 321.328,12.624 321.328,10.655 322.721,9.264 324.689,9.264 
		326.08,10.655 	"/>
	<polygon points="333.281,12.624 331.889,14.016 329.92,14.016 328.529,12.624 328.529,10.655 329.92,9.264 331.889,9.264 
		333.281,10.655 	"/>
	<polygon points="340.48,12.624 339.089,14.016 337.121,14.016 335.729,12.624 335.729,10.655 337.121,9.264 339.089,9.264 
		340.48,10.655 	"/>
	<polygon points="347.681,12.624 346.289,14.016 344.32,14.016 342.929,12.624 342.929,10.655 344.32,9.264 346.289,9.264 
		347.681,10.655 	"/>
	<polygon points="354.881,12.624 353.488,14.016 351.521,14.016 350.129,12.624 350.129,10.655 351.521,9.264 353.488,9.264 
		354.881,10.655 	"/>
	<polygon points="362.08,12.624 360.689,14.016 358.721,14.016 357.328,12.624 357.328,10.655 358.721,9.264 360.689,9.264 
		362.08,10.655 	"/>
	<polygon points="369.281,12.624 367.889,14.016 365.92,14.016 364.529,12.624 364.529,10.655 365.92,9.264 367.889,9.264 
		369.281,10.655 	"/>
	<polygon points="376.48,12.624 375.089,14.016 373.121,14.016 371.729,12.624 371.729,10.655 373.121,9.264 375.089,9.264 
		376.48,10.655 	"/>
	<polygon points="292.961,149.424 291.568,150.815 289.601,150.815 288.209,149.424 288.209,147.455 289.601,146.063 
		291.568,146.063 292.961,147.455 	"/>
	<polygon points="285.761,149.424 284.369,150.815 282.4,150.815 281.009,149.424 281.009,147.455 282.4,146.063 284.369,146.063 
		285.761,147.455 	"/>
	<polygon points="278.561,149.424 277.169,150.815 275.201,150.815 273.809,149.424 273.809,147.455 275.201,146.063 
		277.169,146.063 278.561,147.455 	"/>
	<polygon points="271.361,149.424 269.969,150.815 268,150.815 266.609,149.424 266.609,147.455 268,146.063 269.969,146.063 
		271.361,147.455 	"/>
	<polygon points="264.16,149.424 262.77,150.815 260.801,150.815 259.408,149.424 259.408,147.455 260.801,146.063 262.77,146.063 
		264.16,147.455 	"/>
	<polygon points="314.561,149.424 313.169,150.815 311.201,150.815 309.809,149.424 309.809,147.455 311.201,146.063 
		313.169,146.063 314.561,147.455 	"/>
	<polygon points="321.761,149.424 320.369,150.815 318.4,150.815 317.009,149.424 317.009,147.455 318.4,146.063 320.369,146.063 
		321.761,147.455 	"/>
	<polygon points="328.961,149.424 327.568,150.815 325.601,150.815 324.209,149.424 324.209,147.455 325.601,146.063 
		327.568,146.063 328.961,147.455 	"/>
	<polygon points="336.16,149.424 334.77,150.815 332.801,150.815 331.408,149.424 331.408,147.455 332.801,146.063 334.77,146.063 
		336.16,147.455 	"/>
	<polygon points="343.361,149.424 341.969,150.815 340,150.815 338.609,149.424 338.609,147.455 340,146.063 341.969,146.063 
		343.361,147.455 	"/>
	<polygon points="350.561,149.424 349.169,150.815 347.201,150.815 345.809,149.424 345.809,147.455 347.201,146.063 
		349.169,146.063 350.561,147.455 	"/>
	<polygon points="383.681,12.624 382.289,14.016 380.32,14.016 378.929,12.624 378.929,10.655 380.32,9.264 382.289,9.264 
		383.681,10.655 	"/>
	<polygon points="390.881,12.624 389.488,14.016 387.521,14.016 386.129,12.624 386.129,10.655 387.521,9.264 389.488,9.264 
		390.881,10.655 	"/>
	<polygon points="357.761,149.424 356.369,150.815 354.4,150.815 353.009,149.424 353.009,147.455 354.4,146.063 356.369,146.063 
		357.761,147.455 	"/>
	<polygon points="364.961,149.424 363.568,150.815 361.601,150.815 360.209,149.424 360.209,147.455 361.601,146.063 
		363.568,146.063 364.961,147.455 	"/>
	<g>
		<defs>
			<rect id="SVGID_3_" x="244" width="206.16" height="159.239"/>
		</defs>
		<clipPath id="SVGID_4_">
			<use xlink:href="#SVGID_3_"  overflow="visible"/>
		</clipPath>
		
			<path clip-path="url(#SVGID_4_)" fill="none" stroke="#000000" stroke-width="5.1024" stroke-linecap="round" stroke-linejoin="round" stroke-miterlimit="10" d="
			M255.633,76.439h5.104 M255.633,69.239h5.104 M415.535,76.439h-5.102 M415.535,83.64h-5.102 M415.535,90.84h-5.102 M415.535,98.04
			h-5.102 M340.984,34.288v5.103 M348.185,34.288v5.103 M355.385,34.288v5.103 M362.584,34.288v5.103 M369.785,34.288v5.103
			 M376.984,34.288v5.103 M384.185,34.288v5.103 M391.385,34.288v5.103"/>
	</g>
	
		<path fill="none" stroke="#000000" stroke-width="0.72" stroke-linecap="round" stroke-linejoin="round" stroke-miterlimit="10" d="
		M261.785,39.532v4.508 M261.785,44.04l3.6,3.6 M265.385,47.64h6.48 M271.865,47.64l1.08,1.08 M272.945,48.72v2.16 M272.945,50.88
		l-11.16,11.16 M261.785,62.04v3.6 M261.785,65.64l-3.601,3.6 M340.984,36.84h-4.507 M336.478,36.84l-3.601-3.601 M259.942,94.553
		h-5.244 M254.698,94.553l-0.114-0.113 M254.584,94.439l-3.6-3.6 M250.984,90.84v-18 M250.984,72.84l3.6-3.601 M254.584,69.239
		h3.601 M366.904,11.64v0.72 M366.904,12.359l17.28,17.28 M384.185,29.64h3.601 M387.785,29.64l3.6,3.6 M391.385,33.239v3.601
		 M366.904,12.359l-4.32-4.319 M362.584,8.04h-43.199 M319.385,8.04v11.707 M319.385,19.747l13.492,13.492 M391.385,36.84v46.8
		 M391.385,83.64l14.4,14.4 M405.785,98.04h7.199 M293.824,48.72h-20.879 M312.185,107.933h-10.347 M301.838,107.933l-0.793,0.794
		 M312.185,107.933h18 M326.584,148.439h-7.199 M319.385,148.439v-8.106 M301.045,108.727v6.746 M301.045,115.473l-11.367,11.367
		 M319.385,140.333H303.17 M303.17,140.333l-13.492-13.493 M288.785,137.64v-10.8 M279.785,146.64l9-9 M279.785,150.239v-3.6
		 M277.984,152.04l1.801-1.801 M259.984,152.04h18 M249.185,141.239l10.8,10.801 M249.185,99.84v41.399 M254.584,94.439l-5.399,5.4
		 M288.785,126.84h0.893 M302.292,62.04h-7.388 M294.904,62.04l-1.08-1.08 M272.945,60.96h20.879 M301.835,135.39h17.55
		 M319.385,135.39v-0.443"/>
	<path d="M303.16,135.479c0-0.795-0.645-1.439-1.439-1.439s-1.44,0.645-1.44,1.439s0.646,1.44,1.44,1.44
		S303.16,136.274,303.16,135.479"/>
	
		<path fill="none" stroke="#000000" stroke-width="0.72" stroke-linecap="round" stroke-linejoin="round" stroke-miterlimit="10" d="
		M276.185,148.439v-21.6 M276.185,126.84v-1.871 M276.185,124.969l-16.242-16.242 M284.292,126.84h-8.107 M284.292,126.84v-0.907
		 M284.292,125.933l6.292-6.293 M290.584,119.64v-28.8 M290.584,90.84l7.201-7.2 M297.785,83.64v-7.2 M297.785,76.439l3.6-3.6
		 M301.385,72.84h8.107 M330.185,93.532h-28.12 M302.064,93.532l-1.02,1.021 M330.185,102.547v-9.015 M301.045,101.64h10.232
		 M311.277,101.64l0.907,0.907 M333.785,134.946h-0.908 M332.877,134.946l-2.692,2.693 M330.185,137.64v14.4 M330.185,152.04
		l-3.601,3.6 M326.584,155.64h-25.199 M301.385,155.64l-3.6-3.6 M297.785,152.04v-3.601 M307.678,62.04h4.507 M312.185,62.04
		l3.601,3.6 M315.785,65.64v6.293 M315.785,71.933l-0.908,0.907 M330.185,88.146V83.64 M330.185,83.64l-10.8-10.8 M319.385,72.84
		h-4.508 M333.785,148.439v-8.106 M333.785,140.333h4.506 M338.291,140.333l2.693-2.693 M340.984,137.64v-46.8 M340.984,90.84
		l-3.6-3.601 M337.385,87.239h-6.293 M331.092,87.239l-0.907,0.907 M319.385,39.532v4.508 M319.385,44.04l-10.801,10.8
		 M308.584,54.84h-36 M272.584,54.84l-7.199,7.2 M265.385,62.04v10.8 M265.385,72.84l-3.6,3.6 M261.785,76.439h-3.601
		 M330.904,11.64h2.881 M333.785,11.64l18,18 M351.785,29.64v14.4 M351.785,44.04l-3.601,3.6 M348.185,47.64h-25.2 M322.984,47.64
		l-3.6-3.6 M312.185,25.133v9.014 M312.185,34.146h7.2 M327.492,33.239h-7.201 M320.291,33.239l-0.906,0.907 M312.185,19.747V11.64
		 M304.984,19.747V11.64 M297.785,19.747V11.64 M412.984,90.84h3.6 M416.584,90.84l3.601-3.601 M420.185,87.239V72.84
		 M420.185,72.84l-3.601-3.601 M416.584,69.239h-7.199 M409.385,69.239l-3.6-3.6 M405.785,65.64v-46.8 M405.785,18.84l3.6-3.601
		 M409.385,15.239V8.04 M409.385,8.04l-3.6-3.601 M405.785,4.439h-104.4 M301.385,4.439l-3.6,3.601 M297.785,8.04v3.6
		 M290.584,19.747V11.64 M261.785,19.747V11.64 M268.984,11.64v8.107 M304.984,25.133v9.014 M312.185,39.532h-1.813 M310.371,39.532
		l-5.387-5.386 M283.385,19.747V11.64 M276.185,11.64v8.107 M297.785,34.146v-9.014 M304.984,39.532h-1.814 M303.17,39.532
		l-5.385-5.386 M290.584,25.133v9.014 M290.584,34.146h1.814 M292.398,34.146l5.387,5.386 M283.385,25.133v9.014 M283.385,34.146
		h1.814 M285.199,34.146l5.385,5.386 M276.185,25.133v9.014 M276.185,34.146h1.814 M277.999,34.146l5.386,5.386 M268.984,25.133
		v9.014 M268.984,34.146h1.814 M270.799,34.146l5.386,5.386 M261.785,25.133v9.014 M268.984,39.532h-1.814 M267.17,39.532
		l-5.385-5.386 M412.984,83.64h-10.8 M402.185,83.64l-3.601-3.6 M398.584,80.04V33.239 M398.584,33.239l-7.199-7.199 M391.385,26.04
		h-3.6 M387.785,26.04l-3.601-3.601 M384.185,22.439v-7.92 M384.185,14.52l-2.88-2.88 M388.505,11.64v7.92 M388.505,19.56
		l13.68,13.68 M402.185,33.239V72.84 M402.185,72.84l3.601,3.6 M405.785,76.439h7.199 M323.705,11.64v0.72 M348.185,36.84v-3.601
		 M348.185,33.239l-3.601-3.6 M344.584,29.64h-3.6 M340.984,29.64v-0.72 M340.984,28.92l-17.279-17.28 M355.385,36.84v97.2
		 M355.385,134.04l-14.4,14.399 M338.104,11.64v0.72 M338.104,12.359l17.28,17.28 M355.385,29.64h3.6 M358.984,29.64l3.6,3.6
		 M362.584,33.239v3.601 M369.785,36.84v-0.72 M369.785,36.12l-24.48-24.48 M376.984,36.84v-3.601 M376.984,33.239l-3.6-3.6
		 M373.385,29.64h-3.6 M369.785,29.64l-10.801-10.8 M358.984,18.84v-0.72 M358.984,18.12l-6.479-6.48 M384.185,36.84v-0.72
		 M384.185,36.12l-24.479-24.48"/>
</g>
</svg>
